<?xml version="1.0" encoding="utf-8"?>
<!-- Generator: Adobe Illustrator 18.0.0, SVG Export Plug-In . SVG Version: 6.00 Build 0)  -->
<!DOCTYPE svg PUBLIC "-//W3C//DTD SVG 1.1//EN" "http://www.w3.org/Graphics/SVG/1.1/DTD/svg11.dtd">
<svg version="1.1" xmlns="http://www.w3.org/2000/svg" xmlns:xlink="http://www.w3.org/1999/xlink" x="0px" y="0px"
	 viewBox="0 0 841.9 595.3" enable-background="new 0 0 841.9 595.3" xml:space="preserve">
<g id="Layer_3" display="none">
	<g id="r6Eond.tif" display="inline">
		
			<image overflow="visible" width="500" height="295" id="Layer_0_1_" xlink:href="93591A9528573BE2.png"  transform="matrix(1 0 0 1 170.916 151.045)">
		</image>
	</g>
	<polyline display="inline" fill="none" stroke="#E71D73" stroke-miterlimit="10" points="386.7,342.5 392.3,342.5 397.9,342.5 
		397.9,351.5 	"/>
	
		<line display="inline" fill="none" stroke="#E71D73" stroke-width="0.75" stroke-miterlimit="10" x1="392.3" y1="351.7" x2="392.3" y2="342.5"/>
	<line display="inline" fill="none" stroke="#E71D73" stroke-miterlimit="10" x1="385.7" y1="337.5" x2="399.3" y2="337.5"/>
</g>
<g id="extend">
	<polygon fill="#DADADA" points="351.3,290.4 334.9,358.5 474.8,358.5 474.8,290.5 	"/>
	<polygon fill="#DADADA" points="461.9,290.7 397.8,290.5 397.8,358.5 461.9,358.5 	"/>
</g>
<g id="extendablemast">
	<g id="Layer_8">
		<polygon fill="#DADADA" points="378,300.4 367,166 378,166 381,162 364.7,158.7 364.7,142.5 369,142.5 370.5,136.5 357.3,136.5 
			360,143 360,158.7 350,158.7 353,163 357.3,166 360.5,168 371,307 		"/>
	</g>
</g>
<g id="achterkant">
	<path fill="none" stroke="#000000" stroke-miterlimit="10" d="M211.8,358h42c0,0-22.2-0.5-25.8-5.8s-16-25.8-20-42.5
		s-5.5-22.5-5.5-22.5"/>
	<path fill="#DADADA" stroke="#DADADA" stroke-miterlimit="10" d="M198.8,285.8l13,72.2h-12.5l-4.8-67.8l-2.2-4.5l-0.2-8.2l-7-8.5
		c0,0-4.8-39-5.8-48.8l71.1,17.4v2.7l33.7,6v5.3l33,4v4.1l28.3,2.9v4.7l17.3,0.3l1.3,8.3l0.7,13"/>
	<polyline fill="#DADADA" stroke="#DADADA" stroke-miterlimit="10" points="256,245.7 247.7,164.7 255.8,164.1 256,161.3 
		247.2,160.6 246.7,150 249,150 249.9,147.8 241.9,147.8 242,160.3 238.3,160.2 238.3,164.4 241.3,164.7 251.3,245.7 	"/>
	<polygon fill="#DADADA" stroke="#DADADA" stroke-miterlimit="10" points="364.7,290.9 364.7,358 207.3,358 195.3,280 364.7,284.7 	
		"/>
	<polyline fill="#DADADA" stroke="#DADADA" stroke-miterlimit="10" points="182.3,221 176,158.7 179.2,220.2 	"/>
	<path fill="#DADADA" stroke="#DADADA" stroke-miterlimit="10" d="M173.5,158.7c-4.2,1.3-7.4,10.8-13.5,9
		c-6.3-1.8-9.4-1.3-18.5,11.3c4,6,6.4,19,6.4,19s7.3-17.8,14.2-14.5c6,2.8,12.5,0.2,12.5,0.2L173.5,158.7z"/>
</g>
<g id="voormast">
	<path fill="#DADADA" stroke="#DADADA" stroke-miterlimit="10" d="M506.2,275.1l4-96.9c0,0-7.1-0.8-7.4-1.6
		c-0.3-0.8-1.7-5.3-1.7-5.3l9.8,1l1-15.7c0,0-1.8-2.8-1-3.3s7.2-1.2,8.3,0c1.2,1.2,2.5,3.3,1.5,3.3s-5,0.2-5,0.2l-0.7,16.5l13.5,0.2
		c0,0-1.6,4.3-3.8,5c-3,1-10.2,0-10.2,0l-1.3,96.6"/>
</g>
<g id="voorkant">
	<path fill="#DADADA" stroke="#DADADA" stroke-miterlimit="10" d="M506,270.7c2.5,0,31.3-1.2,31.3-1.2l10.5,6.3c0,0,8.5,3.2,9,6.5
		c-0.8,1.8,3,6,7.8,7.2s24.2-4.5,34.5-6.8s12.5-8,14.5-9.8s-1.2-8.8,2.5-8.7c5,0.2,2.3,6.7,2.3,6.7l4.7-1.7c0,0,0,3.7,0,9.3
		c0,5.7-7,10.7-12.3,13c-5.3,2.3-44,17-47.7,18.3s-24,10.3-28.7,20c-4.7,9.7-21.8,23.9-32,27c-10.3,3.1-43.2,1-43.2,1v-67.1h0.1
		l2.1-15.9l0.6-3.4"/>
	<path fill="#DADADA" stroke="#DADADA" stroke-miterlimit="10" d="M550.7,286.8l105.5-46.3c0,0,5-2.3,5.3-4.8
		c3.8-1.3,6.2-3.5,6.2-4.3c-7.3,0-17.5,0-17.5,0s1.5,2.8,3.5,3.3s-109.2,46.2-109.2,46.2"/>
	<path fill="#DADADA" stroke="#DADADA" stroke-miterlimit="10" d="M613.5,273c1.5-3.5-1.2-8.8,2.5-8.7c5,0.2,2.3,6.7,2.3,6.7"/>
	<line fill="none" stroke="#FFFFFF" stroke-miterlimit="10" x1="210.5" y1="351.2" x2="198.9" y2="352.5"/>
	<line fill="none" stroke="#FFFFFF" stroke-miterlimit="10" x1="208" y1="337.1" x2="197.8" y2="338.8"/>
	<line fill="none" stroke="#FFFFFF" stroke-miterlimit="10" x1="206.2" y1="326.5" x2="197" y2="326.5"/>
	<line fill="none" stroke="#FFFFFF" stroke-miterlimit="10" x1="203.7" y1="313.5" x2="196.1" y2="313.5"/>
	<line fill="none" stroke="#FFFFFF" stroke-miterlimit="10" x1="201.4" y1="300.4" x2="196.1" y2="300.4"/>
	<path fill="none" stroke="#DADADA" stroke-width="1.5" stroke-miterlimit="10" d="M564.9,278.1c0,0,24.9-1.8,29.8-2.8
		c11.6-2.4,20.1-4.8,20.8-5.1"/>
	<line fill="none" stroke="#DADADA" stroke-miterlimit="10" x1="563.2" y1="290.9" x2="563.2" y2="278.1"/>
	<line fill="none" stroke="#DADADA" stroke-miterlimit="10" x1="571.2" y1="290.9" x2="571.2" y2="278.1"/>
	<line fill="none" stroke="#DADADA" stroke-miterlimit="10" x1="579.2" y1="289.9" x2="579.2" y2="277.1"/>
	<line fill="none" stroke="#DADADA" stroke-miterlimit="10" x1="587.2" y1="288.9" x2="587.2" y2="276.1"/>
	<line fill="none" stroke="#DADADA" stroke-miterlimit="10" x1="595.2" y1="287.9" x2="595.2" y2="275.1"/>
	<line fill="none" stroke="#DADADA" stroke-miterlimit="10" x1="602.2" y1="285.9" x2="602.2" y2="273.1"/>
	<line fill="none" stroke="#DADADA" stroke-miterlimit="10" x1="609.2" y1="284.9" x2="609.2" y2="272.1"/>
	<path fill="none" stroke="#DADADA" stroke-miterlimit="10" d="M535.3,269.6l-0.7-8.6c0,0-25.3,3.7-35.7,4.3
		c-10.3,0.6-36.2,0-36.2,0l-1.1,7.3"/>
	<g>
		<path fill="#FFFFFF" d="M211.8,358c0,0-0.2-1.1-0.6-2.9c-0.4-1.9-1-4.5-1.6-7.7c-0.6-3.2-1.4-6.9-2.1-10.9
			c-0.7-4-1.5-8.3-2.3-12.5c-0.7-4.3-1.5-8.5-2.2-12.5c-0.7-4-1.3-7.8-1.8-11c-0.5-3.2-0.9-5.9-1.2-7.8c-0.3-1.9-0.4-2.9-0.4-2.9
			s0.2,1.1,0.6,2.9c0.4,1.9,1,4.5,1.6,7.7c0.6,3.2,1.4,6.9,2.1,10.9c0.7,4,1.5,8.3,2.3,12.5c0.7,4.3,1.5,8.5,2.2,12.5
			c0.7,4,1.3,7.8,1.8,11c0.5,3.2,0.9,5.9,1.2,7.8C211.6,356.9,211.8,358,211.8,358z"/>
	</g>
	<g>
		<path fill="#FFFFFF" d="M249.5,352.5c0,0-0.3,0-0.9-0.1c-0.6-0.1-1.5-0.1-2.6-0.3c-0.6-0.1-1.2-0.2-1.9-0.3
			c-0.7-0.1-1.4-0.2-2.2-0.4c-1.6-0.3-3.3-0.7-5.1-1.3c-1.9-0.6-3.8-1.3-5.9-2.3c-2-1-4-2.2-5.9-3.8c-1.9-1.6-3.6-3.5-4.8-5.8
			c-1.3-2.2-2.3-4.6-3.4-7c-1-2.4-2-4.7-3-7.1c-1-2.4-1.9-4.7-2.8-6.9c-0.9-2.3-1.7-4.4-2.4-6.5c-0.7-2.1-1.4-4.1-2.1-5.9
			c-0.6-1.8-1.2-3.5-1.7-5c-0.5-1.5-0.9-2.8-1.3-3.9c-0.7-2.2-1.1-3.4-1.1-3.4l0.1,0c0,0,1.9,4.8,4.7,12c1.4,3.6,3,7.8,4.8,12.3
			c0.9,2.3,1.8,4.6,2.7,7c0.9,2.4,1.9,4.8,2.9,7.1c1,2.4,2,4.7,3.2,6.9c1.2,2.2,2.8,4.1,4.6,5.7c3.6,3.1,7.8,5,11.5,6.2
			c1.8,0.6,3.6,1,5.1,1.3c0.8,0.2,1.5,0.3,2.2,0.4c0.7,0.1,1.3,0.2,1.8,0.3c1.1,0.2,2,0.3,2.6,0.3
			C249.2,352.4,249.5,352.5,249.5,352.5L249.5,352.5z"/>
	</g>
	<line fill="none" stroke="#DADADA" stroke-miterlimit="10" x1="530.8" y1="261.6" x2="530.8" y2="270.2"/>
	<line fill="none" stroke="#DADADA" stroke-miterlimit="10" x1="525.8" y1="262.6" x2="525.8" y2="271.2"/>
	<line fill="none" stroke="#DADADA" stroke-miterlimit="10" x1="519.8" y1="263.6" x2="519.8" y2="272.2"/>
	<line fill="none" stroke="#DADADA" stroke-miterlimit="10" x1="513.8" y1="263.6" x2="513.8" y2="272.2"/>
	<line fill="none" stroke="#DADADA" stroke-miterlimit="10" x1="507.8" y1="264.6" x2="507.8" y2="273.2"/>
	<line fill="none" stroke="#DADADA" stroke-miterlimit="10" x1="502.8" y1="265.6" x2="502.8" y2="274.2"/>
	<line fill="none" stroke="#DADADA" stroke-miterlimit="10" x1="497.8" y1="265.6" x2="497.8" y2="274.2"/>
	<line fill="none" stroke="#DADADA" stroke-miterlimit="10" x1="491.8" y1="265.6" x2="491.8" y2="274.2"/>
	<line fill="none" stroke="#DADADA" stroke-miterlimit="10" x1="486.8" y1="265.6" x2="486.8" y2="274.2"/>
	<line fill="none" stroke="#DADADA" stroke-miterlimit="10" x1="480.8" y1="265.6" x2="480.8" y2="274.2"/>
	<line fill="none" stroke="#DADADA" stroke-miterlimit="10" x1="474.8" y1="265.6" x2="474.8" y2="274.2"/>
	<line fill="none" stroke="#DADADA" stroke-miterlimit="10" x1="468.8" y1="265.6" x2="468.8" y2="274.2"/>
	<polyline fill="#DADADA" points="507.7,250.1 513.7,250.1 513.6,256.2 507.4,256.2 507.7,250.1 	"/>
	<polyline fill="#DADADA" points="513.7,231.1 513.6,237.2 507.8,237.2 508,231.1 	"/>
	<path fill="#DADADA" d="M508,231.1"/>
	<polyline fill="#DADADA" points="514.7,193.1 514.6,199.2 509.4,199.2 509.6,193.1 	"/>
</g>
<g id="Layer_2" display="none">
	<rect x="384.1" y="293.8" display="inline" opacity="0.41" fill="#E30613" width="78.8" height="180"/>
</g>
<g id="Layer_9">
	<rect x="265.9" y="323.6" fill="#2D2E83" width="85.4" height="26"/>
	<rect x="354.9" y="323.6" fill="#2D2E83" width="23.8" height="26"/>
	<rect x="381.9" y="323.6" fill="#662483" width="23.8" height="11.6"/>
	<rect x="381.9" y="337.6" fill="#36A9E1" width="23.8" height="11.6"/>
	<rect x="408.9" y="323.6" fill="#36A9E1" width="25" height="11.6"/>
	<rect x="408.9" y="337.6" fill="#36A9E1" width="11.2" height="11.6"/>
	<rect x="422.9" y="337.6" fill="#36A9E1" width="11.2" height="11.6"/>
	<rect x="436.9" y="337.6" fill="#662483" width="11.2" height="11.6"/>
	<rect x="450.9" y="337.6" fill="#36A9E1" width="11.2" height="11.6"/>
	<rect x="436.9" y="323.6" fill="#706F6F" width="11.2" height="11.6"/>
	<rect x="450.9" y="323.6" fill="#36A9E1" width="11.2" height="11.6"/>
	<rect x="464.9" y="337.6" fill="#36A9E1" width="11.2" height="11.6"/>
	<rect x="478.9" y="337.6" fill="#36A9E1" width="11.2" height="11.6"/>
	<rect x="464.9" y="323.6" fill="#706F6F" width="11.2" height="11.6"/>
	<rect x="478.9" y="323.6" fill="#706F6F" width="11.2" height="11.6"/>
	<rect x="265.9" y="311.4" fill="#2FAC66" width="224.2" height="9.2"/>
	<rect x="265.9" y="311.4" fill="#BE1622" width="54.1" height="9.2"/>
</g>
</svg>
