<?xml version="1.0" encoding="utf-8"?>
<!-- Generator: Adobe Illustrator 18.0.0, SVG Export Plug-In . SVG Version: 6.00 Build 0)  -->
<!DOCTYPE svg PUBLIC "-//W3C//DTD SVG 1.1//EN" "http://www.w3.org/Graphics/SVG/1.1/DTD/svg11.dtd">
<svg version="1.1" id="Layer_1" xmlns="http://www.w3.org/2000/svg" xmlns:xlink="http://www.w3.org/1999/xlink" x="0px" y="0px"
	 viewBox="0 0 372 71.5" enable-background="new 0 0 372 71.5" xml:space="preserve">
<g>
	<path d="M33.2,71c-2.1,0.3-4.8,0.5-6.8,0.5c-9.6,0-14.2-2.5-14.2-14V21L2,19.8c-1.2-0.1-2-0.7-2-1.9v-2.8c0-1.2,0.8-1.9,2-1.9h10.2
		V2.9c0-1,0.7-1.9,1.9-2.1L19.5,0c0.1,0,0.2,0,0.3,0c0.8,0,1.6,0.7,1.6,1.8v11.4h11.3c1.2,0,2.1,0.9,2.1,2.1v3.6
		c0,1.2-0.9,2.1-2.1,2.1H21.4v36.6c0,5.8,1.5,6.6,5.7,6.6h5.9c1.5,0,2.2,0.4,2.2,1.5v3.7C35.1,70.2,34.6,70.8,33.2,71z"/>
	<path d="M87.3,44.9H52.2v1.5c0,12.5,4.9,17.1,14.6,17.1c6.1,0,13.8-0.4,18.6-1.2c0.2,0,0.3,0,0.5,0c0.8,0,1.7,0.4,1.7,1.5v3.6
		c0,1.4-0.4,2.1-2.1,2.4c-6,1.2-11.7,1.8-18.8,1.8c-12,0-23.8-5.7-23.8-25.1V37c0-15,8.3-24.5,23.3-24.5c15.3,0,23,9.6,23,24.5v5.7
		C89.2,44,88.5,44.9,87.3,44.9z M79.9,37c0-11.8-4.5-16.4-13.7-16.4c-9,0-14,5.1-14,16.4v0.9h27.8V37z"/>
	<path d="M118.7,71.5c-3.9,0-11.4-0.3-16.6-1.6c-1.4-0.3-2.2-0.9-2.2-2.1v-3.7c0-0.9,0.8-1.6,1.9-1.6c0.2,0,0.3,0,0.4,0
		c5,0.6,12.7,1.2,16.4,1.2c6.8,0,10.4-1.8,10.4-7.4c0-3.1-1.9-5.1-7.9-8.7l-10.6-6.3c-6.4-3.9-10.7-8.4-10.7-15
		c0-10.9,8.2-13.9,19-13.9c5.9,0,11.4,0.5,16.3,1.4c1.4,0.2,2,0.9,2,2.1v3.5c0,1.3-0.7,1.8-1.8,1.8c-0.1,0-0.2,0-0.3,0
		c-3.7-0.3-10.4-0.8-16.2-0.8s-9.7,0.7-9.7,6.1c0,3.1,2.4,5.1,7.2,8l10.4,6.2c8.7,5.1,11.5,9.6,11.5,15.8
		C138.3,67,130.4,71.5,118.7,71.5z"/>
	<path d="M178,71c-2.1,0.3-4.8,0.5-6.8,0.5c-9.6,0-14.2-2.5-14.2-14V21l-10.2-1.2c-1.2-0.1-2-0.7-2-1.9v-2.8c0-1.2,0.8-1.9,2-1.9
		h10.2V2.9c0-1,0.7-1.9,1.9-2.1l5.4-0.8c0.1,0,0.2,0,0.3,0c0.8,0,1.6,0.7,1.6,1.8v11.4h11.3c1.2,0,2.1,0.9,2.1,2.1v3.6
		c0,1.2-0.9,2.1-2.1,2.1h-11.3v36.6c0,5.8,1.5,6.6,5.7,6.6h5.9c1.5,0,2.2,0.4,2.2,1.5v3.7C179.8,70.2,179.3,70.8,178,71z"/>
	<path d="M218.3,71c-2.1,0.3-4.8,0.5-6.8,0.5c-9.6,0-14.2-2.5-14.2-14V21l-10.2-1.2c-1.2-0.1-2-0.7-2-1.9v-2.8c0-1.2,0.8-1.9,2-1.9
		h10.2V2.9c0-1,0.7-1.9,1.9-2.1l5.4-0.8c0.1,0,0.2,0,0.3,0c0.8,0,1.6,0.7,1.6,1.8v11.4h11.3c1.2,0,2.1,0.9,2.1,2.1v3.6
		c0,1.2-0.9,2.1-2.1,2.1h-11.3v36.6c0,5.8,1.5,6.6,5.7,6.6h5.9c1.5,0,2.2,0.4,2.2,1.5v3.7C220.2,70.2,219.7,70.8,218.3,71z"/>
	<path d="M272.3,44.9h-35.1v1.5c0,12.5,4.9,17.1,14.6,17.1c6.1,0,13.8-0.4,18.6-1.2c0.2,0,0.3,0,0.5,0c0.8,0,1.7,0.4,1.7,1.5v3.6
		c0,1.4-0.4,2.1-2.1,2.4c-6,1.2-11.7,1.8-18.8,1.8c-12,0-23.8-5.7-23.8-25.1V37c0-15,8.3-24.5,23.3-24.5c15.3,0,23,9.6,23,24.5v5.7
		C274.3,44,273.6,44.9,272.3,44.9z M265,37c0-11.8-4.5-16.4-13.7-16.4c-9,0-14,5.1-14,16.4v0.9H265V37z"/>
	<path d="M329.1,70.8h-7.2c-0.7,0-1-0.2-1.5-0.8l-15-21.9l-15,21.7c-0.6,0.9-0.8,1-1.8,1h-6.3c-0.8,0-1.3-0.4-1.3-1
		c0-0.3,0.1-0.8,0.5-1.4l18.9-26.9l-17.8-25.7c-0.3-0.5-0.5-0.9-0.5-1.4c0-0.7,0.6-1.3,1.6-1.3h6.8c0.8,0,1.4,0.3,2.1,1.5L306,34.4
		l13.4-19.7c0.9-1.4,1.3-1.5,2.2-1.5h6.1c0.8,0,1.4,0.5,1.4,1.3c0,0.4-0.2,0.8-0.5,1.4l-17.6,25l19.2,27.5c0.3,0.4,0.4,0.8,0.4,1.3
		C330.5,70.3,330.2,70.8,329.1,70.8z"/>
	<path d="M370.1,71c-2.1,0.3-4.8,0.5-6.8,0.5c-9.6,0-14.2-2.5-14.2-14V21l-10.2-1.2c-1.2-0.1-2-0.7-2-1.9v-2.8c0-1.2,0.8-1.9,2-1.9
		H349V2.9c0-1,0.7-1.9,1.9-2.1l5.4-0.8c0.1,0,0.2,0,0.3,0c0.8,0,1.6,0.7,1.6,1.8v11.4h11.3c1.2,0,2.1,0.9,2.1,2.1v3.6
		c0,1.2-0.9,2.1-2.1,2.1h-11.3v36.6c0,5.8,1.5,6.6,5.7,6.6h5.9c1.5,0,2.2,0.4,2.2,1.5v3.7C372,70.2,371.4,70.8,370.1,71z"/>
</g>
</svg>
