<?xml version="1.0" encoding="utf-8"?>
<!-- Generator: Adobe Illustrator 18.0.0, SVG Export Plug-In . SVG Version: 6.00 Build 0)  -->
<!DOCTYPE svg PUBLIC "-//W3C//DTD SVG 1.1//EN" "http://www.w3.org/Graphics/SVG/1.1/DTD/svg11.dtd">
<svg version="1.1" id="Layer_1" xmlns="http://www.w3.org/2000/svg" xmlns:xlink="http://www.w3.org/1999/xlink" x="0px" y="0px"
	 viewBox="0 0 143.6 200.5" enable-background="new 0 0 143.6 200.5" xml:space="preserve">
<path fill="none" stroke="#000000" stroke-miterlimit="10" d="M70.9,200h42c0,0-22.2-0.5-25.8-5.8s-16-25.8-20-42.5
	s-5.5-22.5-5.5-22.5"/>
<polyline fill="#DADADA" stroke="#DADADA" stroke-miterlimit="10" points="41.4,63 35.1,0.7 38.4,62.3 "/>
<path fill="#DADADA" stroke="#DADADA" stroke-miterlimit="10" d="M32.6,0.7c-4.2,1.3-7.4,10.8-13.5,9C12.8,7.8,9.7,8.4,0.6,21
	C4.6,27,7,40,7,40s7.3-17.8,14.2-14.5c6,2.8,12.5,0.2,12.5,0.2L32.6,0.7z"/>
<path fill="#CCCCCC" stroke="#DADADA" stroke-miterlimit="10" d="M143.1,88.3l-33.7-6v-2.7L38.4,62.3c1,9.7,5.8,48.7,5.8,48.7l7,8.5
	l0.2,8.2l2.2,4.5l4.8,67.8h8.1h4.4h72.2V93.7V88.3z"/>
<line fill="none" stroke="#FFFFFF" stroke-miterlimit="10" x1="69.6" y1="193.2" x2="58" y2="194.5"/>
<line fill="none" stroke="#FFFFFF" stroke-miterlimit="10" x1="67.1" y1="179.1" x2="56.9" y2="180.8"/>
<line fill="none" stroke="#FFFFFF" stroke-miterlimit="10" x1="65.4" y1="168.5" x2="56.2" y2="168.5"/>
<line fill="none" stroke="#FFFFFF" stroke-miterlimit="10" x1="62.8" y1="155.5" x2="55.2" y2="155.5"/>
<line fill="none" stroke="#FFFFFF" stroke-miterlimit="10" x1="60.5" y1="142.4" x2="55.2" y2="142.4"/>
<g>
	<path fill="#FFFFFF" d="M70.9,200c0,0-0.2-1.1-0.6-2.9c-0.4-1.9-1-4.5-1.6-7.7c-0.6-3.2-1.4-6.9-2.1-10.9c-0.7-4-1.5-8.3-2.3-12.5
		c-0.7-4.3-1.5-8.5-2.2-12.5c-0.7-4-1.3-7.8-1.8-11c-0.5-3.2-0.9-5.9-1.2-7.8c-0.3-1.9-0.4-2.9-0.4-2.9s0.2,1.1,0.6,2.9
		c0.4,1.9,1,4.5,1.6,7.7c0.6,3.2,1.4,6.9,2.1,10.9c0.7,4,1.5,8.3,2.3,12.5c0.7,4.3,1.5,8.5,2.2,12.5c0.7,4,1.3,7.8,1.8,11
		c0.5,3.2,0.9,5.9,1.2,7.8C70.7,198.9,70.9,200,70.9,200z"/>
</g>
<g>
	<path fill="#FFFFFF" d="M108.6,194.6c0,0-0.3,0-0.9-0.1c-0.6-0.1-1.5-0.1-2.6-0.3c-0.6-0.1-1.2-0.2-1.9-0.3
		c-0.7-0.1-1.4-0.2-2.2-0.4c-1.6-0.3-3.3-0.7-5.1-1.3c-1.9-0.6-3.8-1.3-5.9-2.3c-2-1-4-2.2-5.9-3.8c-1.9-1.6-3.6-3.5-4.8-5.8
		c-1.3-2.2-2.3-4.6-3.4-7c-1-2.4-2-4.7-3-7.1c-1-2.4-1.9-4.7-2.8-6.9c-0.9-2.3-1.7-4.4-2.4-6.5c-0.7-2.1-1.4-4.1-2.1-5.9
		c-0.6-1.8-1.2-3.5-1.7-5c-0.5-1.5-0.9-2.8-1.3-3.9c-0.7-2.2-1.1-3.4-1.1-3.4l0.1,0c0,0,1.9,4.8,4.7,12c1.4,3.6,3,7.8,4.8,12.3
		c0.9,2.3,1.8,4.6,2.7,7c0.9,2.4,1.9,4.8,2.9,7.1c1,2.4,2,4.7,3.2,6.9c1.2,2.2,2.8,4.1,4.6,5.7c3.6,3.1,7.8,5,11.5,6.2
		c1.8,0.6,3.6,1,5.1,1.3c0.8,0.2,1.5,0.3,2.2,0.4c0.7,0.1,1.3,0.2,1.8,0.3c1.1,0.2,2,0.3,2.6,0.3
		C108.3,194.4,108.6,194.5,108.6,194.6L108.6,194.6z"/>
</g>
</svg>
