<?xml version="1.0" encoding="utf-8"?>
<!-- Generator: Adobe Illustrator 18.0.0, SVG Export Plug-In . SVG Version: 6.00 Build 0)  -->
<!DOCTYPE svg PUBLIC "-//W3C//DTD SVG 1.1//EN" "http://www.w3.org/Graphics/SVG/1.1/DTD/svg11.dtd">
<svg version="1.1" id="Layer_1" xmlns="http://www.w3.org/2000/svg" xmlns:xlink="http://www.w3.org/1999/xlink" x="0px" y="0px"
	 viewBox="0 0 28.9 123" enable-background="new 0 0 28.9 123" xml:space="preserve">
<path fill="#DADADA" stroke="#DADADA" stroke-miterlimit="10" d="M5.8,122.9l4-96.9c0,0-7.1-0.8-7.4-1.6c-0.3-0.8-1.7-5.3-1.7-5.3
	l9.8,1l1-15.7c0,0-1.8-2.8-1-3.3c0.8-0.5,7.2-1.2,8.3,0s2.5,3.3,1.5,3.3s-5,0.2-5,0.2l-0.7,16.5l13.5,0.2c0,0-1.6,4.3-3.8,5
	c-3,1-10.2,0-10.2,0l-1.3,96.6"/>
<path fill="#DADADA" d="M7.6,78.9"/>
</svg>
