<?xml version="1.0" encoding="utf-8"?>
<!-- Generator: Adobe Illustrator 18.0.0, SVG Export Plug-In . SVG Version: 6.00 Build 0)  -->
<!DOCTYPE svg PUBLIC "-//W3C//DTD SVG 1.1//EN" "http://www.w3.org/Graphics/SVG/1.1/DTD/svg11.dtd">
<svg version="1.1" id="Layer_1" xmlns="http://www.w3.org/2000/svg" xmlns:xlink="http://www.w3.org/1999/xlink" x="0px" y="0px"
	 viewBox="0 0 841.9 595.3" enable-background="new 0 0 841.9 595.3" xml:space="preserve">
<path fill="#DADADA" stroke="#DADADA" stroke-miterlimit="10" d="M363,273.7c2.5,0,31.3-1.2,31.3-1.2l10.5,6.3c0,0,8.5,3.2,9,6.5
	c-0.8,1.8,3,6,7.8,7.2s24.2-4.5,34.5-6.8s12.5-8,14.5-9.8s-1.2-8.8,2.5-8.7c5,0.2,2.3,6.7,2.3,6.7l4.7-1.7c0,0,0,3.7,0,9.3
	c0,5.7-7,10.7-12.3,13c-5.3,2.3-44,17-47.7,18.3s-24,10.3-28.7,20c-4.7,9.7-21.8,23.9-32,27c-10.3,3.1-43.2,1-43.2,1v-67.1h0.1
	l2.1-15.9l0.6-3.4"/>
<path fill="#DADADA" stroke="#DADADA" stroke-miterlimit="10" d="M407.7,289.8l105.5-46.3c0,0,5-2.3,5.3-4.8
	c3.8-1.3,6.2-3.5,6.2-4.3c-7.3,0-17.5,0-17.5,0s1.5,2.8,3.5,3.3c2,0.5-109.2,46.2-109.2,46.2"/>
<path fill="#DADADA" stroke="#DADADA" stroke-miterlimit="10" d="M470.5,276c1.5-3.5-1.2-8.8,2.5-8.7c5,0.2,2.3,6.7,2.3,6.7"/>
<path fill="none" stroke="#DADADA" stroke-width="1.5" stroke-miterlimit="10" d="M421.9,281.1c0,0,24.9-1.8,29.8-2.8
	c11.6-2.4,20.1-4.8,20.8-5.1"/>
<line fill="none" stroke="#DADADA" stroke-miterlimit="10" x1="420.2" y1="293.9" x2="420.2" y2="281.1"/>
<line fill="none" stroke="#DADADA" stroke-miterlimit="10" x1="428.2" y1="293.9" x2="428.2" y2="281.1"/>
<line fill="none" stroke="#DADADA" stroke-miterlimit="10" x1="436.2" y1="292.9" x2="436.2" y2="280.1"/>
<line fill="none" stroke="#DADADA" stroke-miterlimit="10" x1="444.2" y1="291.9" x2="444.2" y2="279.1"/>
<line fill="none" stroke="#DADADA" stroke-miterlimit="10" x1="452.2" y1="290.9" x2="452.2" y2="278.1"/>
<line fill="none" stroke="#DADADA" stroke-miterlimit="10" x1="459.2" y1="288.9" x2="459.2" y2="276.1"/>
<line fill="none" stroke="#DADADA" stroke-miterlimit="10" x1="466.2" y1="287.9" x2="466.2" y2="275.1"/>
<path fill="none" stroke="#DADADA" stroke-miterlimit="10" d="M392.3,272.6l-0.7-8.6c0,0-25.3,3.7-35.7,4.3c-10.3,0.6-36.2,0-36.2,0
	l-1.1,7.3"/>
<line fill="none" stroke="#DADADA" stroke-miterlimit="10" x1="387.8" y1="264.6" x2="387.8" y2="273.2"/>
<line fill="none" stroke="#DADADA" stroke-miterlimit="10" x1="382.8" y1="265.6" x2="382.8" y2="274.2"/>
<line fill="none" stroke="#DADADA" stroke-miterlimit="10" x1="376.8" y1="266.6" x2="376.8" y2="275.2"/>
<line fill="none" stroke="#DADADA" stroke-miterlimit="10" x1="370.8" y1="266.6" x2="370.8" y2="275.2"/>
<line fill="none" stroke="#DADADA" stroke-miterlimit="10" x1="364.8" y1="267.6" x2="364.8" y2="276.2"/>
<line fill="none" stroke="#DADADA" stroke-miterlimit="10" x1="359.8" y1="268.6" x2="359.8" y2="277.2"/>
<line fill="none" stroke="#DADADA" stroke-miterlimit="10" x1="354.8" y1="268.6" x2="354.8" y2="277.2"/>
<line fill="none" stroke="#DADADA" stroke-miterlimit="10" x1="348.8" y1="268.6" x2="348.8" y2="277.2"/>
<line fill="none" stroke="#DADADA" stroke-miterlimit="10" x1="343.8" y1="268.6" x2="343.8" y2="277.2"/>
<line fill="none" stroke="#DADADA" stroke-miterlimit="10" x1="337.8" y1="268.6" x2="337.8" y2="277.2"/>
<line fill="none" stroke="#DADADA" stroke-miterlimit="10" x1="331.8" y1="268.6" x2="331.8" y2="277.2"/>
<line fill="none" stroke="#DADADA" stroke-miterlimit="10" x1="325.8" y1="268.6" x2="325.8" y2="277.2"/>
</svg>
